<svg width="81" height="80" viewBox="0 0 81 80" fill="none" xmlns="http://www.w3.org/2000/svg">
<g id="icon-2">
<circle id="Ellipse-2" cx="40.002" cy="40" r="40" fill="#FFE3DE"/>
<g id="active-call">
<path id="Path_215" fill-rule="evenodd" clip-rule="evenodd" d="M42.568 45.691L46.707 41.552C47.8491 40.4079 48.1311 38.6614 47.407 37.216L47.173 36.747C46.4489 35.3016 46.7308 33.5551 47.873 32.411L53.006 27.278C53.2194 27.0662 53.5214 26.9694 53.8182 27.0177C54.115 27.066 54.3707 27.2535 54.506 27.522L56.59 31.669C58.1764 34.8413 57.5549 38.6729 55.047 41.181L43.78 52.447C41.0498 55.1769 37.0116 56.1301 33.349 54.909L28.814 53.398C28.5052 53.2951 28.2716 53.0396 28.1969 52.7228C28.1221 52.406 28.2167 52.0731 28.447 51.843L33.426 46.863C34.5701 45.7209 36.3166 45.4389 37.762 46.163L38.231 46.397C39.6778 47.1201 41.4251 46.8356 42.568 45.691Z" fill="#FF715B"/>
<path id="Path_216" opacity="0.3" fill-rule="evenodd" clip-rule="evenodd" d="M44.575 29.206L44.216 32.945C41.4272 32.675 38.6635 33.6642 36.6794 35.6424C34.6954 37.6207 33.6981 40.3815 33.96 43.171L30.22 43.52C29.854 39.6156 31.25 35.7517 34.0268 32.9828C36.8037 30.2138 40.6716 28.8289 44.575 29.206L44.575 29.206ZM45.2319 21.722L44.884 25.458C39.8756 24.9873 34.9179 26.7721 31.3589 30.3273C27.7999 33.8824 26.0097 38.8382 26.475 43.847L22.734 44.19C22.1698 38.0704 24.3592 32.0172 28.7076 27.6744C33.056 23.3316 39.112 21.1499 45.2309 21.722L45.2319 21.722Z" fill="#FF715B"/>
</g>
</g>
</svg>
