<svg width="81" height="80" viewBox="0 0 81 80" fill="none" xmlns="http://www.w3.org/2000/svg">
<g id="icon-3">
<circle id="Ellipse-3" cx="40.002" cy="40" r="40" fill="#EAFAF3"/>
<g id="marker-1">
<path id="Path_214" fill-rule="evenodd" clip-rule="evenodd" d="M26.1689 36.25C26.1689 28 31.6689 22.5 39.9189 22.5C47.5062 22.516 53.653 28.6627 53.6689 36.25C53.6689 40.5267 49.6789 46.399 41.6989 53.867C40.6803 54.8204 39.1092 54.8599 38.0439 53.959C30.1273 47.2643 26.1689 41.3613 26.1689 36.25ZM39.9189 39C42.4501 39 44.5019 36.9481 44.5019 34.417C44.5019 31.8859 42.4501 29.834 39.9189 29.834C37.3878 29.834 35.3359 31.8859 35.3359 34.417C35.3359 36.9481 37.3878 39 39.9189 39H39.9189Z" fill="#2DCA8C"/>
</g>
</g>
</svg>
