<svg width="81" height="80" viewBox="0 0 81 80" fill="none" xmlns="http://www.w3.org/2000/svg">
<g id="icon">
<circle id="Ellipse" cx="40.002" cy="40" r="40" fill="#E5F1FF"/>
<g id="mail">
<path id="Path_213" fill-rule="evenodd" clip-rule="evenodd" d="M26.972 28.7061H52.089C54.0706 28.7061 55.677 30.3125 55.677 32.2941V48.4411C55.6763 50.4239 54.0693 52.0297 52.0877 52.0291L26.972 52.0291C24.9904 52.0291 23.384 50.4227 23.384 48.4411L23.384 32.2941C23.384 30.3125 24.9904 28.7061 26.972 28.7061ZM50.554 32.0061L39.531 37.9421L28.507 32.0061C27.8543 31.6678 27.0509 31.9157 26.7024 32.563C26.3539 33.2103 26.5892 34.0174 27.231 34.3761L38.893 40.6551C39.2913 40.8695 39.7707 40.8695 40.169 40.6551L51.83 34.3761C52.2614 34.1525 52.5388 33.7137 52.5558 33.2281C52.5728 32.7424 52.3267 32.2854 51.9119 32.0322C51.4972 31.779 50.9781 31.769 50.554 32.0061Z" fill="#377DFF"/>
</g>
</g>
</svg>
